<?xml version="1.0" encoding="utf-8"?>
<!-- Generator: Adobe Illustrator 21.0.2, SVG Export Plug-In . SVG Version: 6.00 Build 0)  -->
<svg version="1.1" id="Layer_1" xmlns="http://www.w3.org/2000/svg" xmlns:xlink="http://www.w3.org/1999/xlink" x="0px" y="0px"
	 viewBox="0 0 505.3 210" style="enable-background:new 0 0 505.3 210;" xml:space="preserve">
<style type="text/css">
	.st0{fill:#FFFFFF;}
	.st1{display:none;}
	.st2{display:inline;fill:#FFFFFF;}
</style>
<g>
	<path class="st0" d="M15.6,65.5c0-7.7,0-15.4,0-23.1c42.7,0,85.4,0,128.3,0c0,33.4,0,66.7,0,100.1c-7.6-1.7-15.1-3.4-22.7-5.2
		c-9-2.2-18-4.6-27-6.8c-2.2-0.5-3-1.7-3.1-4c-0.3-11.4-0.7-22.8-1-34.3c-0.1-1.3,0.3-2.9-1.9-3c-3.2-0.1-6.4-0.3-10.3-0.4
		c0.7,12.4,1.5,24.5,2.2,36.7c-4.9-0.4-5.5-0.8-5.7-4.8c-0.3-5-0.3-10-0.4-15.1C74.1,98.3,74.1,91,74,83.7c0-1-0.8-2.8-1.5-2.9
		c-3.4-0.5-6.9-0.5-10.8-0.8c0.6,13.5,1.3,26.6,1.9,39.7c-5.3-1.3-5.3-1.3-5.4-6c-0.2-13-0.4-26.1-0.8-39.1c0-1.2-1.1-3.2-1.8-3.3
		c-3.3-0.4-6.7-0.1-10.6-0.1c0.8,14.2,1.5,28.2,2.3,42.8c-11.9-5.1-23.2-10.5-31.7-20.3c0-4.7,0-9.4,0-14.1c4.3-3.9,8.5-7.8,13-11.6
		c3-2.4,6.4-4.4,9.6-6.5C30.1,60.5,22.2,59.5,15.6,65.5z M59.4,56.6c0-5.4-3.7-9.6-8-9.2c-4.5,0.5-7.8,4.9-7.3,10
		c0.4,4.9,3.8,8.4,8,8.3C56.4,65.6,59.4,61.9,59.4,56.6z M92.8,74.4c0-5.1-3.3-9-7.5-9c-4.2-0.1-8,4.2-8,9.1s3.8,9.2,8.1,9.1
		C89.5,83.5,92.8,79.6,92.8,74.4z M76.1,65.6c0.1-4.9-3.7-9.4-7.8-9.3c-4,0.1-7.7,4.2-7.8,9c-0.2,4.7,3.7,9.2,7.9,9.3
		C72.5,74.6,76,70.5,76.1,65.6z"/>
	<path class="st0" d="M15.6,107.2c6.9,5.7,32.7,15.7,32.7,15.7s3.1,27,4.4,36.3c0.5,3.9,1.4,7.7,2.1,11.6c-13,0-26,0-39.1,0
		C15.6,149.5,15.6,128.3,15.6,107.2z"/>
	<path class="st0" d="M93.9,170.7c-0.5-6.7-1-13.4-1.5-20.1c-0.3-4.6-0.7-9.1-1.2-13.9c17.8,3.5,35.3,6.9,52.7,10.3
		c0,7.9,0,15.8,0,23.7C127.3,170.7,110.6,170.7,93.9,170.7z"/>
	<path class="st0" d="M63.1,170.7c-0.7-5.3-1.5-10.5-2.1-15.8c-1-9.2-1.7-18.4-2.6-27.8c5.7,0.6,5.9,1,6.4,5.8
		c1.5,12.6,3.1,25.2,4.7,37.8C67.3,170.7,65.2,170.7,63.1,170.7z"/>
	<path class="st0" d="M79.2,170.7c-1.1-9-2.3-18.2-3.3-27.2c-0.4-3.8-0.6-7.6-0.9-11.3c0.4-0.1,0.5-0.1,0.6-0.1
		c5.6,1.3,5.5,1.3,6,7.3c1,10.5,2.2,20.9,3.3,31.4C83,170.7,81.1,170.7,79.2,170.7z"/>
</g>
<g>
	<rect x="171.6" y="80.3" class="st0" width="17.9" height="71.8"/>
	<path class="st0" d="M465.7,62.4l-22.9,65.1l-23.1-65.1h-24.2v83.2l-31.1-83.2h-17.1l-27.9,74.9h-39.6v-24h35.5V98.7h-35.5V77.3
		h41.6v-15h-59.7h-0.3h-72.8v15h27.1v74.8h18.5V77.3h27.2v74.8h52.6h7.6h12.1l6.2-18.5h32.4l6.2,18.5h17.2h2.5h16v-24.5l-1.8-42.3
		l24.2,66.8h12.7l24.2-66.9l-1.8,42.4v24.5H490V62.4H465.7z M344.7,118.7l11.2-33.6l11.3,33.6H344.7z"/>
</g>
<g class="st1">
	<path class="st2" d="M146.6,161.6c2.4-3.1,5.7-4.7,9.9-4.7c3.4,0,6.1,0.9,8,2.7c1.9,1.8,3.1,4.7,3.7,8.6h6.6
		c-0.5-5.2-2.4-9.3-5.6-12.3c-3.2-3-7.4-4.4-12.7-4.4c-4,0-7.5,0.9-10.5,2.8c-3,1.9-5.4,4.6-7,8.1c-1.7,3.5-2.5,7.6-2.5,12.2v4.8
		c0,7.1,1.8,12.7,5.3,16.9c3.5,4.2,8.3,6.3,14.1,6.3c5.4,0,9.8-1.4,13-4.3s5.2-6.9,5.8-12.2h-6.6c-0.6,4.1-1.9,7-3.9,8.6
		c-1.9,1.7-4.7,2.5-8.4,2.5c-4.1,0-7.2-1.6-9.5-4.8s-3.4-7.5-3.4-12.9v-4.8C143,169.1,144.2,164.7,146.6,161.6z"/>
	<path class="st2" d="M216.1,154.4c-3-1.9-6.6-2.9-10.5-2.9c-3.9,0-7.4,1-10.4,2.9c-3,1.9-5.4,4.8-7.1,8.4
		c-1.7,3.7-2.5,7.9-2.5,12.7v3.6c0,4.7,0.9,8.8,2.6,12.4c1.7,3.6,4,6.3,7.1,8.2c3,1.9,6.5,2.9,10.4,2.9c4,0,7.5-1,10.5-2.9
		s5.3-4.7,7-8.3s2.5-7.9,2.5-12.8v-3.1c0-4.9-0.8-9.1-2.5-12.8C221.5,159.2,219.1,156.4,216.1,154.4z M219.1,179.2
		c-0.1,5.8-1.3,10.2-3.6,13.3c-2.3,3.1-5.6,4.6-9.8,4.6c-4.2,0-7.5-1.6-9.9-4.9c-2.4-3.3-3.6-7.8-3.6-13.5v-3.7
		c0.1-5.6,1.3-10,3.7-13.1c2.4-3.2,5.6-4.7,9.8-4.7c4.3,0,7.6,1.6,9.9,4.7c2.4,3.2,3.6,7.7,3.6,13.6V179.2z"/>
	<polygon class="st2" points="270.8,190.8 245.7,152.2 239.1,152.2 239.1,202 245.7,202 245.7,163.7 270.7,202 277.3,202 
		277.3,152.2 270.8,152.2 	"/>
	<path class="st2" d="M318.9,177.9c-2.3-1.4-5.6-2.7-9.7-3.8c-4.1-1.2-7.1-2.4-8.8-3.9c-1.7-1.4-2.6-3.1-2.6-5.2
		c0-2.5,0.9-4.5,2.7-5.9c1.8-1.4,4.3-2.1,7.6-2.1c3.5,0,6.2,0.9,8.1,2.6s2.9,4.1,2.9,7.1h6.6c0-2.8-0.7-5.3-2.2-7.6
		c-1.5-2.3-3.5-4.1-6.2-5.5c-2.7-1.3-5.7-2-9.1-2c-5,0-9.1,1.3-12.2,3.8c-3.1,2.6-4.7,5.8-4.7,9.7c0,3.5,1.3,6.4,3.8,8.7
		c2.6,2.4,6.7,4.3,12.3,6c4.5,1.3,7.6,2.6,9.3,3.9c1.7,1.3,2.6,3.2,2.6,5.7c0,2.4-0.9,4.4-2.8,5.8c-1.8,1.4-4.5,2.1-8,2.1
		c-3.7,0-6.7-0.9-8.9-2.6c-2.2-1.7-3.3-4.1-3.3-7.1h-6.6c0,2.9,0.8,5.5,2.4,7.8c1.6,2.3,3.9,4.1,6.9,5.4c3,1.3,6.2,2,9.6,2
		c5.3,0,9.5-1.2,12.6-3.6c3.1-2.4,4.7-5.7,4.7-9.7c0-2.5-0.6-4.7-1.7-6.6C322.9,180.9,321.2,179.3,318.9,177.9z"/>
	<path class="st2" d="M366.2,186c0,3.6-1,6.4-3,8.4c-2,2-4.8,3-8.5,3c-3.7,0-6.5-1-8.5-3c-2-2-3-4.8-3-8.4v-33.7h-6.5v33.9
		c0,5.2,1.7,9.2,4.9,12.1c3.2,2.9,7.6,4.4,13,4.4l1.7-0.1c5-0.4,9-2,11.9-5c2.9-3,4.4-6.8,4.4-11.5v-33.8h-6.6V186z"/>
	<polygon class="st2" points="393.4,152.2 386.8,152.2 386.8,202 417,202 417,196.6 393.4,196.6 	"/>
	<polygon class="st2" points="414.6,157.6 430.6,157.6 430.6,202 437.1,202 437.1,157.6 453.1,157.6 453.1,152.2 414.6,152.2 	"/>
	<rect x="464.6" y="152.2" class="st2" width="6.6" height="49.8"/>
	<polygon class="st2" points="518.5,190.8 493.4,152.2 486.8,152.2 486.8,202 493.4,202 493.4,163.7 518.5,202 525.1,202 
		525.1,152.2 518.5,152.2 	"/>
	<path class="st2" d="M559,182.6h11.5v11.2c-1.2,1.3-2.7,2.2-4.6,2.8s-4,0.8-6.5,0.8c-4.4,0-7.8-1.6-10.4-4.9
		c-2.6-3.3-3.8-7.7-3.8-13.3V175c0-5.9,1.2-10.3,3.4-13.4s5.6-4.6,10-4.6c6.6,0,10.5,3.3,11.8,9.9h6.6c-0.7-4.9-2.6-8.6-5.8-11.3
		c-3.2-2.7-7.3-4-12.5-4c-6.3,0-11.3,2.1-14.7,6.2c-3.5,4.1-5.2,9.9-5.2,17.4v4.3c0,4.6,0.9,8.7,2.6,12.2c1.7,3.5,4.2,6.2,7.3,8.1
		s6.7,2.9,10.8,2.9c4,0,7.5-0.6,10.5-1.8c3-1.2,5.4-3,7.1-5.4v-18.3h-18V182.6z"/>
</g>
</svg>
