<?xml version="1.0" encoding="utf-8"?>
<!-- Generator: Adobe Illustrator 21.0.2, SVG Export Plug-In . SVG Version: 6.00 Build 0)  -->
<svg version="1.1" id="Layer_1" xmlns="http://www.w3.org/2000/svg" xmlns:xlink="http://www.w3.org/1999/xlink" x="0px" y="0px"
	 viewBox="0 0 210 210" style="enable-background:new 0 0 210 210;" xml:space="preserve">
<style type="text/css">
	.st0{fill:#FFFFFF;}
</style>
<g>
	<path class="st0" d="M5.8,42.5c0-12,0-24,0-36c66.6,0,133.1,0,200,0c0,52,0,104,0,156c-11.8-2.7-23.6-5.3-35.3-8.1
		c-14-3.4-28-7.1-42-10.6c-3.4-0.8-4.7-2.6-4.8-6.2c-0.4-17.8-1.1-35.6-1.6-53.4c-0.1-2.1,0.4-4.5-2.9-4.7c-5-0.2-9.9-0.4-16-0.7
		c1.1,19.3,2.3,38.2,3.4,57.2c-7.6-0.6-8.6-1.3-8.9-7.5c-0.4-7.8-0.5-15.6-0.6-23.5c-0.2-11.3-0.1-22.7-0.4-34
		c0-1.6-1.3-4.4-2.4-4.5c-5.3-0.8-10.8-0.8-16.8-1.2c1,21.1,2,41.4,3,61.8c-8.3-2-8.3-2-8.4-9.3c-0.3-20.3-0.6-40.6-1.2-60.9
		c0-1.8-1.7-5-2.8-5.2c-5.2-0.6-10.5-0.2-16.5-0.2c1.2,22.1,2.4,44,3.6,66.7c-18.6-8-36.2-16.4-49.4-31.7c0-7.3,0-14.7,0-22
		c6.7-6,13.3-12.2,20.3-18c4.7-3.8,9.9-6.8,14.9-10.2C28.4,34.8,16.1,33.3,5.8,42.5z M74,28.7c0-8.4-5.8-15-12.5-14.3
		c-7,0.8-12.1,7.7-11.4,15.6c0.7,7.7,5.9,13.1,12.5,12.9C69.3,42.8,74,36.9,74,28.7z M126,56.5c0-8-5.1-14.1-11.7-14.1
		c-6.6-0.1-12.5,6.6-12.5,14.2c0,7.6,5.9,14.3,12.6,14.2C120.9,70.6,126,64.5,126,56.5z M100,42.8c0.1-7.7-5.7-14.6-12.1-14.5
		c-6.3,0.1-12,6.6-12.2,14.1c-0.3,7.4,5.7,14.4,12.3,14.5C94.4,56.8,99.9,50.4,100,42.8z"/>
	<path class="st0" d="M5.8,107.5c10.8,8.9,50.9,24.4,50.9,24.4s4.8,42.1,6.8,56.6c0.8,6.1,2.2,12,3.3,18.1c-20.3,0-40.5,0-61,0
		C5.8,173.5,5.8,140.5,5.8,107.5z"/>
	<path class="st0" d="M127.8,206.5c-0.8-10.4-1.5-20.9-2.3-31.3c-0.5-7.1-1.1-14.2-1.8-21.7c27.8,5.4,55,10.7,82.1,16
		c0,12.3,0,24.7,0,37C179.8,206.5,153.8,206.5,127.8,206.5z"/>
	<path class="st0" d="M79.8,206.5c-1.1-8.2-2.3-16.4-3.2-24.7c-1.5-14.4-2.7-28.7-4.1-43.3c8.9,1,9.2,1.5,10,9.1
		c2.3,19.6,4.8,39.2,7.3,58.9C86.4,206.5,83.1,206.5,79.8,206.5z"/>
	<path class="st0" d="M104.8,206.5c-1.7-14.1-3.6-28.3-5.2-42.4c-0.7-5.9-1-11.8-1.4-17.6c0.6-0.1,0.8-0.2,1-0.2
		c8.8,2.1,8.5,2.1,9.4,11.3c1.6,16.3,3.5,32.6,5.2,48.9C110.8,206.5,107.8,206.5,104.8,206.5z"/>
</g>
</svg>
