<?xml version="1.0" encoding="UTF-8"?>

<svg xmlns="http://www.w3.org/2000/svg" xmlns:xlink="http://www.w3.org/1999/xlink" width="200" height="33" viewBox="0 0 219 36">
<style>.a{fill:#63666A;}</style>
<title>SonicWall_Logo</title>
<desc>Logo for SonicWall.com</desc>

<g fill="none">
   
    <g transform="translate(-10 -10)translate(10 10)">
	<a xlink:href= "/" xlink:show="new" target="_parent">
        <path d="M33.9 2.5C32.1 2.5 30.5 3 28.9 3.9 27.4 4.8 26.2 6 25.3 7.5 24.4 9 24 10.7 24 12.6 24 15.4 25 17.7 26.9 19.7 28.8 21.6 31.1 22.5 33.9 22.5 35.7 22.5 37.3 22.1 38.9 21.2 40.4 20.3 41.6 19.1 42.5 17.6 43.4 16.1 43.8 14.4 43.8 12.5 43.8 10.7 43.4 9 42.5 7.5 41.6 6 40.4 4.8 38.9 3.9 37.3 3 35.6 2.5 33.9 2.5L33.9 2.5ZM33.7 0.2C37.3 0.2 40.3 1.4 42.6 3.8 45 6.2 46.2 9.1 46.2 12.5 46.2 15.9 45 18.8 42.6 21.2 40.3 23.6 37.4 24.8 33.9 24.8 30.5 24.8 27.5 23.6 25.2 21.2 22.8 18.9 21.6 16 21.6 12.6 21.6 10.4 22.1 8.3 23.2 6.4 24.3 4.5 25.8 3 27.7 1.9 29.5 0.8 31.6 0.2 33.7 0.2L33.7 0.2Z" class="a"/>
        <polyline points="52.6 25 52.6 0.2 53.1 0.2 69.6 19.2 69.6 0.2 72.1 0.2 72.1 25 71.5 25 55.1 6.2 55.1 25 52.6 25" class="a"/>
        <polygon points="78.8 25 81.1 25 81.1 0.1 78.8 0.1" class="a"/>
        <path d="M157.2 15.2L160.5 6.7 163.8 15.2 157.2 15.2 157.2 15.2ZM162.9 0.2L158.1 0.2 151.4 18.1 164.9 18.1 167.5 24.9 172.4 24.9 162.9 0.2 162.9 0.2Z" class="a"/>
        <polyline points="177.4 0.2 182.1 0.2 182.1 20.3 191.5 20.3 191.5 24.8 177.4 24.8 177.4 0.2" class="a"/>
        <polyline points="196.5 0.2 201.2 0.2 201.2 20.3 210.5 20.3 210.5 24.8 196.5 24.8 196.5 0.2" class="a"/>
        <path d="M144.7 24.2C141.9 16.5 152.4 14.8 163.1 15.1 168.9 15.3 176 16.1 176 16.1 176 16.1 159.3 18.3 153.2 23.1 147.3 27.9 158.7 35.3 158.7 35.3 158.7 35.3 147.2 31.1 144.7 24.2Z" fill="#E3642B"/>
        <path d="M100.7 22.7C97.7 22.7 95.2 21.7 93.3 19.8 91.3 17.9 90.3 15.5 90.3 12.6 90.3 10.7 90.8 9 91.6 7.5 92.5 6 93.8 4.8 95.4 3.9 96.9 3 98.7 2.5 100.6 2.5 102.3 2.5 103.9 2.9 105.3 3.6 106.7 4.2 107.8 5.2 108.8 6.4L108.8 3.2C108.1 2.7 107.3 1.9 106.5 1.5 104.7 0.7 102.7 0.2 100.5 0.2 96.9 0.2 93.9 1.4 91.5 3.7 89 6.1 87.8 9 87.8 12.4 87.8 15.7 88.8 18.5 90.8 20.8 93.2 23.5 96.4 24.9 100.6 24.9 102.7 24.9 104.7 24.5 106.4 23.7 107.3 23.3 108.1 22.6 108.8 22L108.8 19C106.6 21.4 103.9 22.7 100.7 22.7Z" class="a"/>
        <path d="M8.9 11.4C3.3 10.2 2.2 8.8 2.2 6.5L2.2 6.4C2.2 4 4.6 2.2 7.7 2.2 10.4 2.2 12.5 3 14.6 4.8L14.8 5 14.9 4.9 14.9 2.2C12.7 0.8 10.6 0.2 7.8 0.2 3.4 0.2 0 2.9 0 6.6L0 6.7C0 10.4 2.4 12.4 8.1 13.5 13.6 14.6 14.6 16 14.6 18.3L14.6 18.4C14.6 21 12.2 22.8 8.9 22.8 5.6 22.8 3.3 21.8 0.6 19.4L0.4 19.2 0.4 19.2 0.4 22.1C3 24 5.6 24.9 8.8 24.9 13.5 24.9 16.8 22.1 16.8 18.2L16.8 18.1C16.8 14.5 14.5 12.5 8.9 11.4" class="a"/>
        <polyline points="144.3 0.2 138.6 17.3 132.9 0.1 128.4 0.1 122.8 16.9 122.7 17.3 116.9 0.2 111.3 0.2 120.3 24.9 124.8 24.9 130.4 8.8 130.6 8.4 130.7 8.8 136.3 24.9 140.9 24.9 149.8 0.2 144.3 0.2" class="a"/>
        <path d="M214.9 0.3L215.7 0.3 216.5 1.7 217.4 0.3 218.1 0.3 218.1 3.6 217.4 3.6 217.4 1.4 216.5 2.8 216.5 2.8 215.6 1.4 215.6 3.6 214.9 3.6 214.9 0.3 214.9 0.3ZM212.5 1L211.5 1 211.5 0.3 214.2 0.3 214.2 1 213.2 1 213.2 3.6 212.5 3.6 212.5 1 212.5 1Z" class="a"/>
    </a>
	</g>
	
</g>

</svg>
